<?xml version="1.0" encoding="UTF-8"?>
<svg id="Layer_1" data-name="Layer 1" xmlns="http://www.w3.org/2000/svg" xmlns:xlink="http://www.w3.org/1999/xlink" viewBox="0 0 1447.06 1809.44">
  <defs>
    <style>
      .cls-1 {
        fill: url(#linear-gradient-2);
      }

      .cls-2 {
        fill: url(#linear-gradient-3);
      }

      .cls-3 {
        fill: url(#linear-gradient);
      }

      .cls-4 {
        fill: url(#linear-gradient-4);
      }
    </style>
    <linearGradient id="linear-gradient" x1="843.31" y1="0" x2="843.31" y2="1664.16" gradientUnits="userSpaceOnUse">
      <stop offset=".06" stop-color="#7113d3"/>
      <stop offset=".43" stop-color="#2380ec"/>
      <stop offset=".92" stop-color="#14ebfd"/>
    </linearGradient>
    <linearGradient id="linear-gradient-2" x1="644.83" y1="16.39" x2="644.83" y2="1664.16" gradientUnits="userSpaceOnUse">
      <stop offset=".33" stop-color="#fcbe2b"/>
      <stop offset=".61" stop-color="#fffd00"/>
      <stop offset=".87" stop-color="#ff5243"/>
    </linearGradient>
    <linearGradient id="linear-gradient-3" x1="525.12" y1="260.52" x2="525.12" y2="1809.38" gradientUnits="userSpaceOnUse">
      <stop offset=".14" stop-color="#fcbe2b"/>
      <stop offset=".54" stop-color="#fff605"/>
      <stop offset=".86" stop-color="#ff5542"/>
    </linearGradient>
    <linearGradient id="linear-gradient-4" x1="487.25" y1="267.12" x2="487.25" y2="1809.44" gradientUnits="userSpaceOnUse">
      <stop offset=".24" stop-color="#12f7ff"/>
      <stop offset=".65" stop-color="#2580ef"/>
      <stop offset="1" stop-color="#0277aa"/>
    </linearGradient>
  </defs>
  <path class="cls-3" d="m286.31,0c-54.64,148.6-53.25,299.09-36.58,387.82,10.41,55.45,22.98,132.84,67.4,204.29s34.77,54.3,58.98,85.24c64.57,82.5,315.32,260.09,315.32,260.09,0,0,194.04,133.62,270.64,218.38,76.6,84.77,114.64,137.28,130.72,216.68,16.09,79.4-3.66,214.72-10.47,291.66,26.89-59.91,54.38-149.96,54.38-212.51,84.76-.2,310.35-.78,310.35-.78l-450.78-652.32,435.06-645.19-415.15-.26-378.04,547.61s166.89,139.8,251.91,205.67c85.02,65.87,117.19,134.04,120.69,164.13-73.97-76.82-162.29-132.36-234.94-184.9-72.65-52.54-115.03-85.78-202.35-158.04-87.32-72.26-114.13-106.98-159.32-160.85-45.19-53.87-80.68-138.21-104.17-237.45-23.49-99.23-29.8-262.37-23.67-329.26Z"/>
  <path class="cls-1" d="m280.51,16.39c-16.85,72-27.73,120.7-33.85,190.15-6.12,69.45,2.21,172.57,2.21,172.57,0,0,12.68,114.14,56.55,189.85s59.84,99.08,128.74,163.44c68.9,64.36,105.1,92.87,162.76,134.7,57.65,41.83,221.4,159.21,320.21,243.27s162.72,176.62,177.21,270.64c14.49,94.02-12.02,283.15-12.02,283.15,0,0-12.51-143.23-65.11-277.02-52.6-133.79-266.03-290.59-350.79-353.14-84.77-62.55-228.78-172.31-292.61-230.52-63.83-58.21-102.47-119.69-126.68-168.49s-48.19-147.6-54.32-228.79,4.58-149.07,11.09-177.56,34.28-128.99,76.6-212.24Z"/>
  <path class="cls-2" d="m105.94,260.52c-7.66,40.75-12.7,134.55-11.17,196.34s20.02,140.66,26.55,160.34c19.59,59.06,58.84,129.01,89.36,171.06s67.86,83,120.62,131.22c52.76,48.21,76.26,62.64,105.87,88.17,29.62,25.53,235.38,167.77,291.39,215.93s119.16,97.26,184.86,178.28c65.7,81.02,79.76,157.11,83.06,195.4,3.3,38.3,8.98,117.34-26.08,212.11,3.08-67.02-3.11-178.52-23.86-223s-36.16-81.03-99.16-147.92c-63-66.89-186.59-149.49-186.59-149.49,0,0-176.38-116.74-256.13-177.32-79.75-60.58-81.02-57.94-173.06-145.63-92.04-87.69-123.88-176.84-137.16-213.6-9.44-26.14-19.79-56.96-31.34-118.36s-13.6-119.34-10.66-169.64,6.51-59.32,9.92-79.74c3.4-20.43,17.36-87.49,43.57-124.15Z"/>
  <path class="cls-4" d="m101.55,267.12c-22.88,52.45-35.6,106.37-41.83,148.97s-7.99,98.58-5.9,128.07c2.09,29.49,7.55,86.68,17.97,127.61s16.53,72.39,46.81,135.37c30.28,62.98,73.6,110.84,100.53,140.58,26.93,29.75,102.65,94.5,143.66,126.8,41.01,32.3,122.97,90.56,148.04,107.33,25.07,16.78,106.15,73.52,159.72,107.57,53.57,34.06,139.51,102.32,183.24,150.88,43.73,48.57,79.8,100.06,98.42,155.36,18.62,55.3,28.37,178.4,18.18,213.78-4.31-50.74-21.07-106.25-35.59-137.89s-20.43-40.66-43.91-77.52c-23.49-36.86-69.47-84.26-101.62-110.56-32.15-26.3-67.62-55.72-87.83-70.47-20.21-14.75-147.06-101.62-147.06-101.62l-1.93,150.68-410.04,3.06,1.02-460.09s-83.43-107.44-109.39-190.51C8.08,731.46.52,663.22.03,602.11s6.5-110.34,17.36-148.43,28.94-111.32,84.16-186.57Z"/>
</svg>